# xmcd CD database file
#
# Track frame offsets:
#	150
#	19667
#	38467
#
# Disc length: 770 seconds
#
# Revision: 7
# Processed by: cddbd v1.5PL3 Copyright (c) Steve Scherf et al.
# Submitted via: CDex 1.50beta10
#
DISCID=14030003
DTITLE=The Yellow Monkey - SHOCK HEARTS
DYEAR=1900
DGENRE=Rock
TTITLE0=SHOCK HEARTS
TTITLE1=DEAR FEELING
TTITLE2=SHOCK HEARTS (Karaoke)
EXTD=
EXTT0=
EXTT1=
EXTT2=
PLAYORDER=
